<svg width="25" height="25" viewBox="0 0 25 25" fill="none" xmlns="http://www.w3.org/2000/svg">
<path d="M12.5275 25H12.4725C5.59523 25 0 19.4048 0 12.5275V12.4725C0 5.59524 5.59523 0 12.4725 0H12.5275C19.4048 0 25 5.59524 25 12.4725V12.5275C25 19.4048 19.4048 25 12.5275 25ZM12.4725 0.846224C6.0615 0.846224 0.846224 6.06151 0.846224 12.4725V12.5275C0.846224 18.9385 6.0615 24.1538 12.4725 24.1538H12.5275C18.9385 24.1538 24.1538 18.9385 24.1538 12.5275V12.4725C24.1538 6.06151 18.9385 0.846224 12.5275 0.846224H12.4725Z" fill="#1877F2"/>
<path d="M14.1819 9.69689V12.3278H17.4364L16.9211 15.8718H14.1819V24.037C13.6327 24.1132 13.0708 24.1529 12.5004 24.1529C11.8421 24.1529 11.1955 24.1005 10.5659 23.9989V15.8718H7.56439V12.3278H10.5659V9.10877C10.5659 7.11168 12.1848 5.492 14.1827 5.492V5.49369C14.1886 5.49369 14.1937 5.492 14.1996 5.492L17.4373 5.492V8.55703H15.3217C14.693 8.55703 14.1827 9.0673 14.1827 9.69604L14.1819 9.69689Z" fill="#1877F2"/>
</svg>
