<svg width="25" height="25" viewBox="0 0 25 25" fill="none" xmlns="http://www.w3.org/2000/svg">
<path d="M12.5276 25.0083H12.4726C5.5953 25.0083 6.10352e-05 19.413 6.10352e-05 12.5358V12.4808C6.10352e-05 5.60351 5.5953 0.00827026 12.4726 0.00827026H12.5276C19.4048 0.00827026 25.0001 5.60351 25.0001 12.4808V12.5358C25.0001 19.413 19.4048 25.0083 12.5276 25.0083ZM12.4726 0.854495C6.06157 0.854495 0.846285 6.06978 0.846285 12.4808V12.5358C0.846285 18.9468 6.06157 24.162 12.4726 24.162H12.5276C18.9386 24.162 24.1538 18.9468 24.1538 12.5358V12.4808C24.1538 6.06978 18.9386 0.854495 12.5276 0.854495H12.4726Z" fill="url(#paint0_linear_1_824)"/>
<path d="M16.2374 5.3454L8.76359 5.3454C6.6988 5.3454 5.01904 7.02515 5.01904 9.08994V15.9274C5.01904 17.9922 6.6988 19.672 8.76359 19.672H16.2374C18.3022 19.672 19.982 17.9922 19.982 15.9274V9.08994C19.982 7.02515 18.3022 5.3454 16.2374 5.3454ZM6.34 9.08994C6.34 7.75375 7.4274 6.66635 8.76359 6.66635L16.2374 6.66635C17.5736 6.66635 18.661 7.75375 18.661 9.08994V15.9274C18.661 17.2636 17.5736 18.351 16.2374 18.351H8.76359C7.4274 18.351 6.34 17.2636 6.34 15.9274V9.08994Z" fill="url(#paint1_linear_1_824)"/>
<path d="M12.5005 15.9909C14.4206 15.9909 15.9836 14.4288 15.9836 12.5079C15.9836 10.5869 14.4214 9.02481 12.5005 9.02481C10.5796 9.02481 9.01746 10.5869 9.01746 12.5079C9.01746 14.4288 10.5796 15.9909 12.5005 15.9909ZM12.5005 10.3466C13.6928 10.3466 14.6626 11.3164 14.6626 12.5087C14.6626 13.701 13.6928 14.6708 12.5005 14.6708C11.3082 14.6708 10.3384 13.701 10.3384 12.5087C10.3384 11.3164 11.3082 10.3466 12.5005 10.3466Z" fill="url(#paint2_linear_1_824)"/>
<path d="M16.306 9.58755C16.823 9.58755 17.2444 9.16698 17.2444 8.64909C17.2444 8.1312 16.8238 7.71063 16.306 7.71063C15.7881 7.71063 15.3675 8.1312 15.3675 8.64909C15.3675 9.16698 15.7881 9.58755 16.306 9.58755Z" fill="url(#paint3_linear_1_824)"/>
<defs>
<linearGradient id="paint0_linear_1_824" x1="3.65744" y1="21.3509" x2="21.3427" y2="3.66565" gradientUnits="userSpaceOnUse">
<stop stop-color="#FAAD4F"/>
<stop offset="0.35" stop-color="#DD2A7B"/>
<stop offset="0.62" stop-color="#9537B0"/>
<stop offset="1" stop-color="#515BD4"/>
</linearGradient>
<linearGradient id="paint1_linear_1_824" x1="6.27569" y1="18.7327" x2="18.7245" y2="6.28471" gradientUnits="userSpaceOnUse">
<stop stop-color="#FAAD4F"/>
<stop offset="0.35" stop-color="#DD2A7B"/>
<stop offset="0.62" stop-color="#9537B0"/>
<stop offset="1" stop-color="#515BD4"/>
</linearGradient>
<linearGradient id="paint2_linear_1_824" x1="10.0388" y1="14.9704" x2="14.9613" y2="10.0471" gradientUnits="userSpaceOnUse">
<stop stop-color="#FAAD4F"/>
<stop offset="0.35" stop-color="#DD2A7B"/>
<stop offset="0.62" stop-color="#9537B0"/>
<stop offset="1" stop-color="#515BD4"/>
</linearGradient>
<linearGradient id="paint3_linear_1_824" x1="15.6425" y1="9.31253" x2="16.9694" y2="7.98565" gradientUnits="userSpaceOnUse">
<stop stop-color="#FAAD4F"/>
<stop offset="0.35" stop-color="#DD2A7B"/>
<stop offset="0.62" stop-color="#9537B0"/>
<stop offset="1" stop-color="#515BD4"/>
</linearGradient>
</defs>
</svg>
