<svg width="26" height="26" viewBox="0 0 26 26" fill="none" xmlns="http://www.w3.org/2000/svg">
<path d="M12.5559 25.6747H12.5009C5.62362 25.6747 0.0283813 20.0795 0.0283813 13.2022V13.1472C0.0283813 6.26997 5.62362 0.674728 12.5009 0.674728H12.5559C19.4331 0.674728 25.0284 6.26997 25.0284 13.1472V13.2022C25.0284 20.0795 19.4331 25.6747 12.5559 25.6747ZM12.5009 1.52095C6.08989 1.52095 0.874606 6.73623 0.874606 13.1472V13.2022C0.874606 19.6132 6.08989 24.8285 12.5009 24.8285H12.5559C18.9669 24.8285 24.1822 19.6132 24.1822 13.2022V13.1472C24.1822 6.73623 18.9669 1.52095 12.5559 1.52095H12.5009Z" fill="#383D38"/>
<path d="M5.35028 6.56616L10.9201 14.0129L5.31558 20.0677H6.57731L11.4846 14.7669L15.4491 20.0677H19.742L13.8591 12.202L19.076 6.56616H17.8143L13.2955 11.448L9.64402 6.56616H5.35112H5.35028ZM7.2052 7.49531H9.1769L17.8854 19.1385H15.9137L7.2052 7.49531Z" fill="#383D38"/>
</svg>
